<mxfile host="app.diagrams.net" agent="Mozilla/5.0 (Windows NT 10.0; Win64; x64) AppleWebKit/537.36 (KHTML, like Gecko) Chrome/126.0.0.0 YaBrowser/24.7.0.0 Safari/537.36" version="24.8.0">
  <diagram name="Страница — 1" id="9RAW0U6VBFOoRO0kCPcA">
    <mxGraphModel dx="2901" dy="2312" grid="1" gridSize="10" guides="1" tooltips="1" connect="1" arrows="1" fold="1" page="1" pageScale="1" pageWidth="827" pageHeight="1169" background="#ffffff" math="0" shadow="0">
      <root>
        <mxCell id="0" />
        <mxCell id="1" parent="0" />
        <mxCell id="GMgN1Cl_ILHEnfedxMWd-1" style="edgeStyle=orthogonalEdgeStyle;rounded=0;orthogonalLoop=1;jettySize=auto;html=1;entryX=0;entryY=0.5;entryDx=0;entryDy=0;dashed=1;startArrow=classic;startFill=1;endArrow=none;endFill=0;" parent="1" source="GMgN1Cl_ILHEnfedxMWd-3" target="GMgN1Cl_ILHEnfedxMWd-9" edge="1">
          <mxGeometry relative="1" as="geometry" />
        </mxCell>
        <mxCell id="9AeZooRBN76Ic_oo0eFn-1" style="edgeStyle=orthogonalEdgeStyle;rounded=0;orthogonalLoop=1;jettySize=auto;html=1;entryX=1;entryY=0.5;entryDx=0;entryDy=0;dashed=1;endArrow=none;endFill=0;startArrow=classic;startFill=1;" parent="1" source="GMgN1Cl_ILHEnfedxMWd-3" target="GMgN1Cl_ILHEnfedxMWd-5" edge="1">
          <mxGeometry relative="1" as="geometry" />
        </mxCell>
        <mxCell id="GMgN1Cl_ILHEnfedxMWd-3" value="ValueValidator" style="swimlane;whiteSpace=wrap;html=1;" parent="1" vertex="1">
          <mxGeometry x="360" y="370" width="200" height="200" as="geometry" />
        </mxCell>
        <mxCell id="GMgN1Cl_ILHEnfedxMWd-4" value="+AssertStringOnLength(string, int, string): void" style="text;html=1;align=center;verticalAlign=middle;whiteSpace=wrap;rounded=0;fontStyle=4;fillColor=default;" parent="GMgN1Cl_ILHEnfedxMWd-3" vertex="1">
          <mxGeometry y="30" width="200" height="170" as="geometry" />
        </mxCell>
        <mxCell id="I4g3jQwAsmDP1vjbgEyY-17" style="edgeStyle=orthogonalEdgeStyle;rounded=0;orthogonalLoop=1;jettySize=auto;html=1;exitX=0;exitY=0.5;exitDx=0;exitDy=0;entryX=1;entryY=0.5;entryDx=0;entryDy=0;endArrow=open;endFill=0;endSize=10;startArrow=diamondThin;startFill=1;startSize=20;" parent="1" source="GMgN1Cl_ILHEnfedxMWd-5" target="9AeZooRBN76Ic_oo0eFn-14" edge="1">
          <mxGeometry relative="1" as="geometry" />
        </mxCell>
        <mxCell id="GMgN1Cl_ILHEnfedxMWd-5" value="Item" style="swimlane;whiteSpace=wrap;html=1;" parent="1" vertex="1">
          <mxGeometry x="80" y="320" width="200" height="200" as="geometry" />
        </mxCell>
        <mxCell id="GMgN1Cl_ILHEnfedxMWd-6" value="&lt;u&gt;-_idCounter: int&lt;/u&gt;&lt;div&gt;-_id: int&lt;/div&gt;&lt;div&gt;-_name: string&lt;/div&gt;&lt;div&gt;-_info: string&lt;/div&gt;&lt;div&gt;-_cost: int&lt;/div&gt;" style="text;html=1;align=left;verticalAlign=middle;whiteSpace=wrap;rounded=0;fillColor=default;" parent="GMgN1Cl_ILHEnfedxMWd-5" vertex="1">
          <mxGeometry y="30" width="200" height="70" as="geometry" />
        </mxCell>
        <mxCell id="GMgN1Cl_ILHEnfedxMWd-7" value="+ID {get; private set;}(): int&lt;div&gt;+Name {get; set;}(): string&lt;/div&gt;&lt;div&gt;+Info {get; set;}(): string&lt;/div&gt;&lt;div&gt;+Cost {get; set;}(): string&lt;/div&gt;&lt;div&gt;+Category {get; set;}(): Category&lt;/div&gt;" style="text;html=1;align=left;verticalAlign=middle;whiteSpace=wrap;rounded=0;fillColor=default;" parent="GMgN1Cl_ILHEnfedxMWd-5" vertex="1">
          <mxGeometry y="110" width="200" height="90" as="geometry" />
        </mxCell>
        <mxCell id="GMgN1Cl_ILHEnfedxMWd-8" value="" style="endArrow=none;html=1;rounded=0;exitX=0;exitY=0.5;exitDx=0;exitDy=0;entryX=1;entryY=0.5;entryDx=0;entryDy=0;" parent="1" source="GMgN1Cl_ILHEnfedxMWd-5" target="GMgN1Cl_ILHEnfedxMWd-5" edge="1">
          <mxGeometry width="50" height="50" relative="1" as="geometry">
            <mxPoint x="110" y="460" as="sourcePoint" />
            <mxPoint x="160" y="410" as="targetPoint" />
          </mxGeometry>
        </mxCell>
        <mxCell id="t04y_2WHbk5BwOvO7LWw-22" style="edgeStyle=orthogonalEdgeStyle;rounded=0;orthogonalLoop=1;jettySize=auto;html=1;exitX=0.25;exitY=0;exitDx=0;exitDy=0;entryX=1;entryY=0.25;entryDx=0;entryDy=0;endSize=10;startSize=20;startArrow=diamondThin;startFill=1;endArrow=open;endFill=0;" edge="1" parent="1" source="GMgN1Cl_ILHEnfedxMWd-9" target="t04y_2WHbk5BwOvO7LWw-15">
          <mxGeometry relative="1" as="geometry" />
        </mxCell>
        <mxCell id="GMgN1Cl_ILHEnfedxMWd-9" value="Customer" style="swimlane;whiteSpace=wrap;html=1;fillColor=default;" parent="1" vertex="1">
          <mxGeometry x="640" y="320" width="240" height="230" as="geometry" />
        </mxCell>
        <mxCell id="GMgN1Cl_ILHEnfedxMWd-10" value="&lt;u&gt;-_idCounter: int&lt;/u&gt;&lt;div&gt;-_id: int&lt;/div&gt;&lt;div&gt;-_fullName: string&lt;/div&gt;&lt;div&gt;-_address: Address&lt;/div&gt;&lt;div&gt;-_cart: Cart&lt;/div&gt;&lt;div&gt;-_orders: List&amp;lt;Order&amp;gt;&lt;/div&gt;&lt;div&gt;-_isPriority: bool&lt;/div&gt;" style="text;html=1;align=left;verticalAlign=middle;whiteSpace=wrap;rounded=0;fillColor=default;" parent="GMgN1Cl_ILHEnfedxMWd-9" vertex="1">
          <mxGeometry y="30" width="240" height="100" as="geometry" />
        </mxCell>
        <mxCell id="GMgN1Cl_ILHEnfedxMWd-11" value="+ID {get; private set;}(): int&lt;div&gt;+FullName {get; set;}(): string&lt;/div&gt;&lt;div&gt;+CustomerAdress {get; set;}(): Address&lt;/div&gt;&lt;div&gt;+CustomerCart&amp;nbsp;&lt;span style=&quot;background-color: initial;&quot;&gt;{get; set;}(): Cart&lt;/span&gt;&lt;/div&gt;&lt;div&gt;&lt;span style=&quot;background-color: initial;&quot;&gt;+IsPriority{get; set;}(): bool&lt;/span&gt;&lt;/div&gt;&lt;div&gt;+Discounts{get; set;}(): List&amp;lt;IDiscount&amp;gt;&lt;/div&gt;" style="text;html=1;align=left;verticalAlign=middle;whiteSpace=wrap;rounded=0;fillColor=default;" parent="GMgN1Cl_ILHEnfedxMWd-9" vertex="1">
          <mxGeometry y="130" width="240" height="100" as="geometry" />
        </mxCell>
        <mxCell id="GMgN1Cl_ILHEnfedxMWd-12" value="" style="endArrow=none;html=1;rounded=0;exitX=0;exitY=0.5;exitDx=0;exitDy=0;" parent="GMgN1Cl_ILHEnfedxMWd-9" edge="1">
          <mxGeometry width="50" height="50" relative="1" as="geometry">
            <mxPoint y="130" as="sourcePoint" />
            <mxPoint x="240" y="130" as="targetPoint" />
          </mxGeometry>
        </mxCell>
        <mxCell id="9AeZooRBN76Ic_oo0eFn-6" style="rounded=0;orthogonalLoop=1;jettySize=auto;html=1;entryX=0.5;entryY=1;entryDx=0;entryDy=0;edgeStyle=orthogonalEdgeStyle;endArrow=open;endFill=0;startArrow=diamondThin;startFill=1;endSize=10;startSize=20;" parent="1" source="9AeZooRBN76Ic_oo0eFn-2" target="GMgN1Cl_ILHEnfedxMWd-9" edge="1">
          <mxGeometry relative="1" as="geometry" />
        </mxCell>
        <mxCell id="9AeZooRBN76Ic_oo0eFn-7" style="edgeStyle=orthogonalEdgeStyle;rounded=0;orthogonalLoop=1;jettySize=auto;html=1;entryX=0.5;entryY=1;entryDx=0;entryDy=0;endSize=10;startSize=20;startArrow=diamondThin;startFill=1;endArrow=open;endFill=0;" parent="1" source="9AeZooRBN76Ic_oo0eFn-2" target="GMgN1Cl_ILHEnfedxMWd-5" edge="1">
          <mxGeometry relative="1" as="geometry" />
        </mxCell>
        <mxCell id="9AeZooRBN76Ic_oo0eFn-2" value="Store" style="swimlane;whiteSpace=wrap;html=1;" parent="1" vertex="1">
          <mxGeometry x="360" y="600" width="200" height="200" as="geometry" />
        </mxCell>
        <mxCell id="9AeZooRBN76Ic_oo0eFn-3" value="-_items: List&amp;lt;Item&amp;gt;&lt;div&gt;-_customers: List&amp;lt;Customer&amp;gt;&lt;/div&gt;" style="text;html=1;align=left;verticalAlign=middle;whiteSpace=wrap;rounded=0;fillColor=default;" parent="9AeZooRBN76Ic_oo0eFn-2" vertex="1">
          <mxGeometry y="30" width="200" height="70" as="geometry" />
        </mxCell>
        <mxCell id="9AeZooRBN76Ic_oo0eFn-4" value="+ Items{ get; set; }(): List&amp;lt;Item&amp;gt;&lt;div&gt;+ Customers{ get; set; }(): List&amp;lt;Customer&lt;span style=&quot;background-color: initial;&quot;&gt;&amp;gt;&lt;/span&gt;&lt;/div&gt;" style="text;html=1;align=left;verticalAlign=middle;whiteSpace=wrap;rounded=0;fillColor=default;" parent="9AeZooRBN76Ic_oo0eFn-2" vertex="1">
          <mxGeometry y="100" width="200" height="100" as="geometry" />
        </mxCell>
        <mxCell id="It3N_wg7KqoPmzn8hMsc-4" value="1" style="text;html=1;align=center;verticalAlign=middle;whiteSpace=wrap;rounded=0;" parent="9AeZooRBN76Ic_oo0eFn-2" vertex="1">
          <mxGeometry x="-40" y="65" width="60" height="30" as="geometry" />
        </mxCell>
        <mxCell id="9AeZooRBN76Ic_oo0eFn-5" value="" style="endArrow=none;html=1;rounded=0;exitX=0;exitY=0.5;exitDx=0;exitDy=0;entryX=1;entryY=0.5;entryDx=0;entryDy=0;" parent="1" source="9AeZooRBN76Ic_oo0eFn-2" target="9AeZooRBN76Ic_oo0eFn-2" edge="1">
          <mxGeometry width="50" height="50" relative="1" as="geometry">
            <mxPoint x="390" y="740" as="sourcePoint" />
            <mxPoint x="440" y="690" as="targetPoint" />
          </mxGeometry>
        </mxCell>
        <mxCell id="I4g3jQwAsmDP1vjbgEyY-37" style="edgeStyle=orthogonalEdgeStyle;rounded=0;orthogonalLoop=1;jettySize=auto;html=1;exitX=0;exitY=0.75;exitDx=0;exitDy=0;entryX=1;entryY=0;entryDx=0;entryDy=0;dashed=1;" parent="1" source="9AeZooRBN76Ic_oo0eFn-8" target="GMgN1Cl_ILHEnfedxMWd-4" edge="1">
          <mxGeometry relative="1" as="geometry">
            <Array as="points">
              <mxPoint x="610" y="180" />
              <mxPoint x="610" y="400" />
            </Array>
          </mxGeometry>
        </mxCell>
        <mxCell id="9AeZooRBN76Ic_oo0eFn-8" value="Address" style="swimlane;whiteSpace=wrap;html=1;" parent="1" vertex="1">
          <mxGeometry x="840" width="200" height="240" as="geometry" />
        </mxCell>
        <mxCell id="9AeZooRBN76Ic_oo0eFn-9" value="&lt;div&gt;-_index: int&lt;/div&gt;&lt;div&gt;- _country:&amp;nbsp;&lt;span style=&quot;background-color: initial;&quot;&gt;string&lt;/span&gt;&lt;/div&gt;&lt;div&gt;-_city:&amp;nbsp;&lt;span style=&quot;background-color: initial;&quot;&gt;string&lt;/span&gt;&lt;/div&gt;&lt;div&gt;-_street&lt;span style=&quot;background-color: initial;&quot;&gt;:&amp;nbsp;&lt;/span&gt;&lt;span style=&quot;background-color: initial;&quot;&gt;string&lt;/span&gt;&lt;/div&gt;&lt;div&gt;-_building&lt;span style=&quot;background-color: initial;&quot;&gt;:&amp;nbsp;&lt;/span&gt;&lt;span style=&quot;background-color: initial;&quot;&gt;string&lt;/span&gt;&lt;/div&gt;&lt;div&gt;-_apartment&lt;span style=&quot;background-color: initial;&quot;&gt;:&amp;nbsp;&lt;/span&gt;&lt;span style=&quot;background-color: initial;&quot;&gt;string&lt;/span&gt;&lt;/div&gt;" style="text;html=1;align=left;verticalAlign=middle;whiteSpace=wrap;rounded=0;fillColor=default;" parent="9AeZooRBN76Ic_oo0eFn-8" vertex="1">
          <mxGeometry y="30" width="200" height="110" as="geometry" />
        </mxCell>
        <mxCell id="9AeZooRBN76Ic_oo0eFn-10" value="+Index{get; set;}(): int&lt;div&gt;+Country&lt;span style=&quot;background-color: initial;&quot;&gt;{get; set;}(): string&lt;/span&gt;&lt;/div&gt;&lt;div&gt;&lt;span style=&quot;background-color: initial;&quot;&gt;+City&lt;/span&gt;&lt;span style=&quot;background-color: initial;&quot;&gt;{get; set;}(): string&lt;/span&gt;&lt;/div&gt;&lt;div&gt;&lt;span style=&quot;background-color: initial;&quot;&gt;+Street&lt;/span&gt;&lt;span style=&quot;background-color: initial;&quot;&gt;{get; set;}(): string&lt;/span&gt;&lt;/div&gt;&lt;div&gt;&lt;span style=&quot;background-color: initial;&quot;&gt;+Building&lt;/span&gt;&lt;span style=&quot;background-color: initial;&quot;&gt;{get; set;}(): string&lt;/span&gt;&lt;/div&gt;&lt;div&gt;&lt;span style=&quot;background-color: initial;&quot;&gt;+Apartment&lt;/span&gt;&lt;span style=&quot;background-color: initial;&quot;&gt;{get; set;}(): string&lt;/span&gt;&lt;/div&gt;" style="text;html=1;align=left;verticalAlign=middle;whiteSpace=wrap;rounded=0;fillColor=default;" parent="9AeZooRBN76Ic_oo0eFn-8" vertex="1">
          <mxGeometry y="140" width="200" height="100" as="geometry" />
        </mxCell>
        <mxCell id="9AeZooRBN76Ic_oo0eFn-11" value="" style="endArrow=none;html=1;rounded=0;exitX=0;exitY=0.5;exitDx=0;exitDy=0;entryX=1;entryY=0.5;entryDx=0;entryDy=0;" parent="9AeZooRBN76Ic_oo0eFn-8" edge="1">
          <mxGeometry width="50" height="50" relative="1" as="geometry">
            <mxPoint y="140" as="sourcePoint" />
            <mxPoint x="200" y="140" as="targetPoint" />
          </mxGeometry>
        </mxCell>
        <mxCell id="9AeZooRBN76Ic_oo0eFn-14" value="&quot;enumeration&quot;&lt;div&gt;Category&lt;/div&gt;" style="swimlane;whiteSpace=wrap;html=1;startSize=40;" parent="1" vertex="1">
          <mxGeometry x="-200" y="320" width="200" height="200" as="geometry" />
        </mxCell>
        <mxCell id="I4g3jQwAsmDP1vjbgEyY-11" value="&lt;div&gt;Food,&lt;/div&gt;&lt;div&gt;Clothes,&lt;/div&gt;&lt;div&gt;Boots,&lt;/div&gt;&lt;div&gt;Toys,&lt;/div&gt;&lt;div&gt;Electronics,&lt;/div&gt;&lt;div&gt;Accessories,&lt;/div&gt;&lt;div&gt;Books&lt;/div&gt;" style="text;html=1;align=center;verticalAlign=middle;whiteSpace=wrap;rounded=0;fillColor=default;" parent="9AeZooRBN76Ic_oo0eFn-14" vertex="1">
          <mxGeometry y="50" width="200" height="150" as="geometry" />
        </mxCell>
        <mxCell id="It3N_wg7KqoPmzn8hMsc-1" value="1" style="text;html=1;align=center;verticalAlign=middle;whiteSpace=wrap;rounded=0;" parent="1" vertex="1">
          <mxGeometry x="-20" y="390" width="60" height="30" as="geometry" />
        </mxCell>
        <mxCell id="It3N_wg7KqoPmzn8hMsc-3" value="1" style="text;html=1;align=center;verticalAlign=middle;whiteSpace=wrap;rounded=0;" parent="1" vertex="1">
          <mxGeometry x="40" y="390" width="60" height="30" as="geometry" />
        </mxCell>
        <mxCell id="It3N_wg7KqoPmzn8hMsc-5" value="1" style="text;html=1;align=center;verticalAlign=middle;whiteSpace=wrap;rounded=0;" parent="1" vertex="1">
          <mxGeometry x="540" y="670" width="60" height="30" as="geometry" />
        </mxCell>
        <mxCell id="It3N_wg7KqoPmzn8hMsc-6" value="1" style="text;html=1;align=center;verticalAlign=middle;whiteSpace=wrap;rounded=0;" parent="1" vertex="1">
          <mxGeometry x="820" y="290" width="60" height="30" as="geometry" />
        </mxCell>
        <mxCell id="It3N_wg7KqoPmzn8hMsc-7" value="1" style="text;html=1;align=center;verticalAlign=middle;whiteSpace=wrap;rounded=0;" parent="1" vertex="1">
          <mxGeometry x="940" y="240" width="60" height="30" as="geometry" />
        </mxCell>
        <mxCell id="It3N_wg7KqoPmzn8hMsc-8" value="n&lt;span style=&quot;color: rgba(0, 0, 0, 0); font-family: monospace; font-size: 0px; text-align: start; text-wrap: nowrap;&quot;&gt;%3CmxGraphModel%3E%3Croot%3E%3CmxCell%20id%3D%220%22%2F%3E%3CmxCell%20id%3D%221%22%20parent%3D%220%22%2F%3E%3CmxCell%20id%3D%222%22%20value%3D%221%22%20style%3D%22text%3Bhtml%3D1%3Balign%3Dcenter%3BverticalAlign%3Dmiddle%3BwhiteSpace%3Dwrap%3Brounded%3D0%3B%22%20vertex%3D%221%22%20parent%3D%221%22%3E%3CmxGeometry%20x%3D%22170%22%20y%3D%22240%22%20width%3D%2260%22%20height%3D%2230%22%20as%3D%22geometry%22%2F%3E%3C%2FmxCell%3E%3C%2Froot%3E%3C%2FmxGraphModel%3E&lt;/span&gt;" style="text;html=1;align=center;verticalAlign=middle;whiteSpace=wrap;rounded=0;" parent="1" vertex="1">
          <mxGeometry x="170" y="520" width="60" height="30" as="geometry" />
        </mxCell>
        <mxCell id="It3N_wg7KqoPmzn8hMsc-10" value="n&lt;span style=&quot;color: rgba(0, 0, 0, 0); font-family: monospace; font-size: 0px; text-align: start; text-wrap: nowrap;&quot;&gt;%3CmxGraphModel%3E%3Croot%3E%3CmxCell%20id%3D%220%22%2F%3E%3CmxCell%20id%3D%221%22%20parent%3D%220%22%2F%3E%3CmxCell%20id%3D%222%22%20value%3D%221%22%20style%3D%22text%3Bhtml%3D1%3Balign%3Dcenter%3BverticalAlign%3Dmiddle%3BwhiteSpace%3Dwrap%3Brounded%3D0%3B%22%20vertex%3D%221%22%20parent%3D%221%22%3E%3CmxGeometry%20x%3D%22170%22%20y%3D%22240%22%20width%3D%2260%22%20height%3D%2230%22%20as%3D%22geometry%22%2F%3E%3C%2FmxCell%3E%3C%2Froot%3E%3C%2FmxGraphModel%3E&lt;/span&gt;" style="text;html=1;align=center;verticalAlign=middle;whiteSpace=wrap;rounded=0;" parent="1" vertex="1">
          <mxGeometry x="710" y="550" width="60" height="30" as="geometry" />
        </mxCell>
        <mxCell id="I4g3jQwAsmDP1vjbgEyY-3" value="Cart" style="swimlane;whiteSpace=wrap;html=1;" parent="1" vertex="1">
          <mxGeometry x="1000" y="320" width="200" height="200" as="geometry" />
        </mxCell>
        <mxCell id="I4g3jQwAsmDP1vjbgEyY-4" value="-_items: List&amp;lt;Item&amp;gt;" style="text;html=1;align=left;verticalAlign=middle;whiteSpace=wrap;rounded=0;fillColor=default;" parent="I4g3jQwAsmDP1vjbgEyY-3" vertex="1">
          <mxGeometry y="30" width="200" height="70" as="geometry" />
        </mxCell>
        <mxCell id="I4g3jQwAsmDP1vjbgEyY-5" value="+ Items{ get; set; }(): List&amp;lt;Item&amp;gt;&lt;div&gt;+ Amount{ get; }(): float&lt;/div&gt;" style="text;html=1;align=left;verticalAlign=middle;whiteSpace=wrap;rounded=0;fillColor=default;" parent="I4g3jQwAsmDP1vjbgEyY-3" vertex="1">
          <mxGeometry y="100" width="200" height="100" as="geometry" />
        </mxCell>
        <mxCell id="I4g3jQwAsmDP1vjbgEyY-7" value="" style="endArrow=none;html=1;rounded=0;exitX=0;exitY=0.5;exitDx=0;exitDy=0;entryX=1;entryY=0.5;entryDx=0;entryDy=0;" parent="1" source="I4g3jQwAsmDP1vjbgEyY-3" target="I4g3jQwAsmDP1vjbgEyY-3" edge="1">
          <mxGeometry width="50" height="50" relative="1" as="geometry">
            <mxPoint x="1250" y="470" as="sourcePoint" />
            <mxPoint x="1300" y="420" as="targetPoint" />
          </mxGeometry>
        </mxCell>
        <mxCell id="I4g3jQwAsmDP1vjbgEyY-8" value="&quot;enumeration&quot;&lt;div&gt;OrderStatus&lt;/div&gt;" style="swimlane;whiteSpace=wrap;html=1;startSize=40;" parent="1" vertex="1">
          <mxGeometry width="200" height="210" as="geometry" />
        </mxCell>
        <mxCell id="I4g3jQwAsmDP1vjbgEyY-10" value="&lt;div&gt;&lt;div&gt;New,&lt;/div&gt;&lt;div&gt;Proccessing,&lt;/div&gt;&lt;div&gt;Assembly,&lt;/div&gt;&lt;div&gt;Sent,&lt;/div&gt;&lt;div&gt;Delivered,&lt;/div&gt;&lt;div&gt;Returned,&lt;/div&gt;&lt;div style=&quot;&quot;&gt;Abandoned&lt;/div&gt;&lt;/div&gt;" style="text;html=1;align=center;verticalAlign=middle;whiteSpace=wrap;rounded=0;fillColor=default;" parent="I4g3jQwAsmDP1vjbgEyY-8" vertex="1">
          <mxGeometry y="50" width="200" height="160" as="geometry" />
        </mxCell>
        <mxCell id="I4g3jQwAsmDP1vjbgEyY-20" style="edgeStyle=orthogonalEdgeStyle;rounded=0;orthogonalLoop=1;jettySize=auto;html=1;exitX=0;exitY=0.5;exitDx=0;exitDy=0;entryX=1;entryY=0.5;entryDx=0;entryDy=0;startArrow=diamondThin;startFill=1;endSize=10;startSize=20;endArrow=open;endFill=0;" parent="1" source="I4g3jQwAsmDP1vjbgEyY-12" target="I4g3jQwAsmDP1vjbgEyY-10" edge="1">
          <mxGeometry relative="1" as="geometry" />
        </mxCell>
        <mxCell id="I4g3jQwAsmDP1vjbgEyY-28" style="edgeStyle=orthogonalEdgeStyle;rounded=0;orthogonalLoop=1;jettySize=auto;html=1;exitX=1;exitY=0.5;exitDx=0;exitDy=0;entryX=0;entryY=0.75;entryDx=0;entryDy=0;startArrow=diamondThin;startFill=0;endArrow=open;endFill=0;endSize=10;startSize=20;" parent="1" source="I4g3jQwAsmDP1vjbgEyY-12" target="9AeZooRBN76Ic_oo0eFn-9" edge="1">
          <mxGeometry relative="1" as="geometry" />
        </mxCell>
        <mxCell id="I4g3jQwAsmDP1vjbgEyY-12" value="Order" style="swimlane;whiteSpace=wrap;html=1;" parent="1" vertex="1">
          <mxGeometry x="360" y="-40" width="200" height="340" as="geometry" />
        </mxCell>
        <mxCell id="I4g3jQwAsmDP1vjbgEyY-13" value="&lt;u&gt;-_idCounter: int&lt;/u&gt;&lt;div&gt;-_id: int&lt;/div&gt;&lt;div&gt;-_customerId: int&lt;/div&gt;&lt;div&gt;-_customerFullName: string&lt;/div&gt;&lt;div&gt;-_totalPrice: string&lt;/div&gt;&lt;div&gt;-_deliveryAddress: Address&lt;/div&gt;&lt;div&gt;-_creationDate: DateTime&lt;/div&gt;&lt;div&gt;-_status: OrderStatus&lt;/div&gt;&lt;div&gt;-_items: List&amp;lt;Item&amp;gt;&lt;br&gt;&lt;/div&gt;" style="text;html=1;align=left;verticalAlign=middle;whiteSpace=wrap;rounded=0;fillColor=default;" parent="I4g3jQwAsmDP1vjbgEyY-12" vertex="1">
          <mxGeometry y="30" width="200" height="120" as="geometry" />
        </mxCell>
        <mxCell id="I4g3jQwAsmDP1vjbgEyY-15" value="" style="endArrow=none;html=1;rounded=0;exitX=0;exitY=0.5;exitDx=0;exitDy=0;entryX=1;entryY=0.5;entryDx=0;entryDy=0;" parent="I4g3jQwAsmDP1vjbgEyY-12" edge="1">
          <mxGeometry width="50" height="50" relative="1" as="geometry">
            <mxPoint y="160" as="sourcePoint" />
            <mxPoint x="200" y="160" as="targetPoint" />
          </mxGeometry>
        </mxCell>
        <mxCell id="I4g3jQwAsmDP1vjbgEyY-14" value="+ID {get; private set;}(): int&lt;div&gt;&lt;span style=&quot;background-color: initial;&quot;&gt;+TotalPrice {get; }(): double&lt;/span&gt;&lt;/div&gt;&lt;div&gt;&lt;span style=&quot;background-color: initial;&quot;&gt;+Amount{get;}(): double&lt;/span&gt;&lt;/div&gt;&lt;div&gt;+DiscountAmount{get; set;}(): double&lt;/div&gt;&lt;div&gt;&lt;span style=&quot;background-color: initial;&quot;&gt;+CustomerFullName{get; set; }(): string&lt;/span&gt;&lt;/div&gt;&lt;div&gt;&lt;span style=&quot;background-color: initial;&quot;&gt;+CustomerId{get; set;}(): int&lt;/span&gt;&lt;/div&gt;&lt;div&gt;&lt;span style=&quot;background-color: initial;&quot;&gt;+Status&lt;/span&gt;&lt;span style=&quot;background-color: initial;&quot;&gt;{get; set; }(): OrderStatus&lt;/span&gt;&lt;/div&gt;&lt;div&gt;&lt;span style=&quot;background-color: initial;&quot;&gt;+Items&lt;/span&gt;&lt;span style=&quot;background-color: initial;&quot;&gt;{get; set; }(): List&amp;lt;Item&amp;gt;&lt;/span&gt;&lt;/div&gt;&lt;div&gt;&lt;span style=&quot;background-color: initial;&quot;&gt;+CustomerAddress&lt;/span&gt;&lt;span style=&quot;background-color: initial;&quot;&gt;{get; set; }(): Address&lt;/span&gt;&lt;/div&gt;&lt;div&gt;&lt;span style=&quot;background-color: initial;&quot;&gt;+CreationDate&lt;/span&gt;&lt;span style=&quot;background-color: initial;&quot;&gt;{get; set; }(): DateTime&lt;/span&gt;&lt;/div&gt;" style="text;html=1;align=left;verticalAlign=middle;whiteSpace=wrap;rounded=0;fillColor=default;" parent="I4g3jQwAsmDP1vjbgEyY-12" vertex="1">
          <mxGeometry y="170" width="200" height="170" as="geometry" />
        </mxCell>
        <mxCell id="I4g3jQwAsmDP1vjbgEyY-16" style="edgeStyle=orthogonalEdgeStyle;rounded=0;orthogonalLoop=1;jettySize=auto;html=1;exitX=0.5;exitY=1;exitDx=0;exitDy=0;entryX=0.75;entryY=0;entryDx=0;entryDy=0;startArrow=open;startFill=0;endArrow=diamondThin;endFill=1;endSize=20;startSize=10;" parent="1" source="9AeZooRBN76Ic_oo0eFn-10" target="GMgN1Cl_ILHEnfedxMWd-9" edge="1">
          <mxGeometry relative="1" as="geometry" />
        </mxCell>
        <mxCell id="I4g3jQwAsmDP1vjbgEyY-19" style="edgeStyle=orthogonalEdgeStyle;rounded=0;orthogonalLoop=1;jettySize=auto;html=1;exitX=0;exitY=0;exitDx=0;exitDy=0;entryX=0.5;entryY=1;entryDx=0;entryDy=0;startArrow=diamondThin;startFill=1;endArrow=open;endFill=0;endSize=10;startSize=20;" parent="1" source="GMgN1Cl_ILHEnfedxMWd-10" target="I4g3jQwAsmDP1vjbgEyY-12" edge="1">
          <mxGeometry relative="1" as="geometry">
            <Array as="points">
              <mxPoint x="460" y="350" />
            </Array>
          </mxGeometry>
        </mxCell>
        <mxCell id="I4g3jQwAsmDP1vjbgEyY-21" value="1" style="text;html=1;align=center;verticalAlign=middle;whiteSpace=wrap;rounded=0;" parent="1" vertex="1">
          <mxGeometry x="320" y="90" width="60" height="30" as="geometry" />
        </mxCell>
        <mxCell id="I4g3jQwAsmDP1vjbgEyY-22" value="1" style="text;html=1;align=center;verticalAlign=middle;whiteSpace=wrap;rounded=0;" parent="1" vertex="1">
          <mxGeometry x="180" y="90" width="60" height="30" as="geometry" />
        </mxCell>
        <mxCell id="I4g3jQwAsmDP1vjbgEyY-23" style="edgeStyle=orthogonalEdgeStyle;rounded=0;orthogonalLoop=1;jettySize=auto;html=1;entryX=0.75;entryY=0;entryDx=0;entryDy=0;startArrow=diamondThin;startFill=0;endArrow=open;endFill=0;endSize=10;startSize=20;" parent="1" source="I4g3jQwAsmDP1vjbgEyY-14" target="GMgN1Cl_ILHEnfedxMWd-5" edge="1">
          <mxGeometry relative="1" as="geometry" />
        </mxCell>
        <mxCell id="I4g3jQwAsmDP1vjbgEyY-24" value="1" style="text;html=1;align=center;verticalAlign=middle;whiteSpace=wrap;rounded=0;" parent="1" vertex="1">
          <mxGeometry x="320" y="220" width="60" height="30" as="geometry" />
        </mxCell>
        <mxCell id="I4g3jQwAsmDP1vjbgEyY-25" value="n" style="text;html=1;align=center;verticalAlign=middle;whiteSpace=wrap;rounded=0;" parent="1" vertex="1">
          <mxGeometry x="220" y="290" width="60" height="30" as="geometry" />
        </mxCell>
        <mxCell id="I4g3jQwAsmDP1vjbgEyY-26" value="1" style="text;html=1;align=center;verticalAlign=middle;whiteSpace=wrap;rounded=0;" parent="1" vertex="1">
          <mxGeometry x="600" y="320" width="60" height="30" as="geometry" />
        </mxCell>
        <mxCell id="I4g3jQwAsmDP1vjbgEyY-27" value="n" style="text;html=1;align=center;verticalAlign=middle;whiteSpace=wrap;rounded=0;" parent="1" vertex="1">
          <mxGeometry x="450" y="300" width="60" height="30" as="geometry" />
        </mxCell>
        <mxCell id="I4g3jQwAsmDP1vjbgEyY-29" value="1" style="text;html=1;align=center;verticalAlign=middle;whiteSpace=wrap;rounded=0;" parent="1" vertex="1">
          <mxGeometry x="540" y="90" width="60" height="30" as="geometry" />
        </mxCell>
        <mxCell id="I4g3jQwAsmDP1vjbgEyY-30" value="1" style="text;html=1;align=center;verticalAlign=middle;whiteSpace=wrap;rounded=0;" parent="1" vertex="1">
          <mxGeometry x="800" y="80" width="60" height="30" as="geometry" />
        </mxCell>
        <mxCell id="I4g3jQwAsmDP1vjbgEyY-31" style="edgeStyle=orthogonalEdgeStyle;rounded=0;orthogonalLoop=1;jettySize=auto;html=1;entryX=0.25;entryY=1;entryDx=0;entryDy=0;startArrow=diamondThin;startFill=0;endArrow=open;endFill=0;endSize=10;startSize=20;" parent="1" source="I4g3jQwAsmDP1vjbgEyY-5" target="GMgN1Cl_ILHEnfedxMWd-7" edge="1">
          <mxGeometry relative="1" as="geometry">
            <Array as="points">
              <mxPoint x="1100" y="820" />
              <mxPoint x="130" y="820" />
            </Array>
          </mxGeometry>
        </mxCell>
        <mxCell id="I4g3jQwAsmDP1vjbgEyY-32" value="n&lt;span style=&quot;color: rgba(0, 0, 0, 0); font-family: monospace; font-size: 0px; text-align: start; text-wrap: nowrap;&quot;&gt;%3CmxGraphModel%3E%3Croot%3E%3CmxCell%20id%3D%220%22%2F%3E%3CmxCell%20id%3D%221%22%20parent%3D%220%22%2F%3E%3CmxCell%20id%3D%222%22%20value%3D%221%22%20style%3D%22text%3Bhtml%3D1%3Balign%3Dcenter%3BverticalAlign%3Dmiddle%3BwhiteSpace%3Dwrap%3Brounded%3D0%3B%22%20vertex%3D%221%22%20parent%3D%221%22%3E%3CmxGeometry%20x%3D%22170%22%20y%3D%22240%22%20width%3D%2260%22%20height%3D%2230%22%20as%3D%22geometry%22%2F%3E%3C%2FmxCell%3E%3C%2Froot%3E%3C%2FmxGraphModel%3E&lt;/span&gt;" style="text;html=1;align=center;verticalAlign=middle;whiteSpace=wrap;rounded=0;" parent="1" vertex="1">
          <mxGeometry x="80" y="520" width="60" height="30" as="geometry" />
        </mxCell>
        <mxCell id="I4g3jQwAsmDP1vjbgEyY-33" value="1" style="text;html=1;align=center;verticalAlign=middle;whiteSpace=wrap;rounded=0;" parent="1" vertex="1">
          <mxGeometry x="1100" y="520" width="60" height="30" as="geometry" />
        </mxCell>
        <mxCell id="I4g3jQwAsmDP1vjbgEyY-34" style="edgeStyle=orthogonalEdgeStyle;rounded=0;orthogonalLoop=1;jettySize=auto;html=1;entryX=0;entryY=0.25;entryDx=0;entryDy=0;endArrow=open;endFill=0;startArrow=diamondThin;startFill=1;endSize=10;startSize=20;" parent="1" source="GMgN1Cl_ILHEnfedxMWd-10" target="I4g3jQwAsmDP1vjbgEyY-5" edge="1">
          <mxGeometry relative="1" as="geometry" />
        </mxCell>
        <mxCell id="I4g3jQwAsmDP1vjbgEyY-35" value="1" style="text;html=1;align=center;verticalAlign=middle;whiteSpace=wrap;rounded=0;" parent="1" vertex="1">
          <mxGeometry x="860" y="360" width="60" height="30" as="geometry" />
        </mxCell>
        <mxCell id="I4g3jQwAsmDP1vjbgEyY-36" value="1" style="text;html=1;align=center;verticalAlign=middle;whiteSpace=wrap;rounded=0;" parent="1" vertex="1">
          <mxGeometry x="960" y="410" width="60" height="30" as="geometry" />
        </mxCell>
        <mxCell id="io1Po6JrHzI410Qk05B3-11" style="edgeStyle=orthogonalEdgeStyle;rounded=0;orthogonalLoop=1;jettySize=auto;html=1;exitX=0;exitY=0.5;exitDx=0;exitDy=0;entryX=1;entryY=0.5;entryDx=0;entryDy=0;endArrow=open;endFill=0;startArrow=diamondThin;startFill=1;endSize=10;startSize=20;" parent="1" source="io1Po6JrHzI410Qk05B3-1" target="io1Po6JrHzI410Qk05B3-7" edge="1">
          <mxGeometry relative="1" as="geometry" />
        </mxCell>
        <mxCell id="io1Po6JrHzI410Qk05B3-1" value="PriorityOrder" style="swimlane;whiteSpace=wrap;html=1;" parent="1" vertex="1">
          <mxGeometry x="360" y="-300" width="200" height="200" as="geometry" />
        </mxCell>
        <mxCell id="io1Po6JrHzI410Qk05B3-2" value="-_deliveryTime: DeliveryTime&lt;div&gt;-_deliveryDate: DateTime&lt;/div&gt;" style="text;html=1;align=left;verticalAlign=middle;whiteSpace=wrap;rounded=0;fillColor=default;" parent="io1Po6JrHzI410Qk05B3-1" vertex="1">
          <mxGeometry y="30" width="200" height="70" as="geometry" />
        </mxCell>
        <mxCell id="io1Po6JrHzI410Qk05B3-3" value="+DesiredDeliveryTime{get; set;}(): DeliveryTime&lt;div&gt;+DeliveryDate&lt;span style=&quot;background-color: initial;&quot;&gt;{get; set;}(): DateTime&lt;/span&gt;&lt;/div&gt;" style="text;html=1;align=left;verticalAlign=middle;whiteSpace=wrap;rounded=0;fillColor=default;" parent="io1Po6JrHzI410Qk05B3-1" vertex="1">
          <mxGeometry y="110" width="200" height="90" as="geometry" />
        </mxCell>
        <mxCell id="io1Po6JrHzI410Qk05B3-4" value="" style="endArrow=none;html=1;rounded=0;exitX=0;exitY=0.5;exitDx=0;exitDy=0;entryX=1;entryY=0.5;entryDx=0;entryDy=0;" parent="1" source="io1Po6JrHzI410Qk05B3-1" target="io1Po6JrHzI410Qk05B3-1" edge="1">
          <mxGeometry width="50" height="50" relative="1" as="geometry">
            <mxPoint x="390" y="-160" as="sourcePoint" />
            <mxPoint x="440" y="-210" as="targetPoint" />
          </mxGeometry>
        </mxCell>
        <mxCell id="io1Po6JrHzI410Qk05B3-5" style="edgeStyle=orthogonalEdgeStyle;rounded=0;orthogonalLoop=1;jettySize=auto;html=1;entryX=0.5;entryY=0;entryDx=0;entryDy=0;endArrow=block;endFill=0;startSize=10;endSize=10;" parent="1" source="io1Po6JrHzI410Qk05B3-3" target="I4g3jQwAsmDP1vjbgEyY-12" edge="1">
          <mxGeometry relative="1" as="geometry" />
        </mxCell>
        <mxCell id="io1Po6JrHzI410Qk05B3-6" value="&quot;enumeration&quot;&lt;div&gt;DeliveryTime&lt;/div&gt;" style="swimlane;whiteSpace=wrap;html=1;startSize=40;" parent="1" vertex="1">
          <mxGeometry x="40" y="-300" width="200" height="210" as="geometry" />
        </mxCell>
        <mxCell id="io1Po6JrHzI410Qk05B3-7" value="&lt;div&gt;&lt;br&gt;&lt;/div&gt;&lt;div&gt;Morning,&lt;/div&gt;&lt;div&gt;Lunch,&lt;/div&gt;&lt;div&gt;Afternoon,&lt;/div&gt;&lt;div&gt;Evening,&lt;/div&gt;&lt;div&gt;LateEvening,&lt;/div&gt;&lt;div&gt;Night&lt;/div&gt;" style="text;html=1;align=center;verticalAlign=middle;whiteSpace=wrap;rounded=0;fillColor=default;" parent="io1Po6JrHzI410Qk05B3-6" vertex="1">
          <mxGeometry y="40" width="200" height="160" as="geometry" />
        </mxCell>
        <mxCell id="io1Po6JrHzI410Qk05B3-12" value="1" style="text;html=1;align=center;verticalAlign=middle;whiteSpace=wrap;rounded=0;" parent="1" vertex="1">
          <mxGeometry x="320" y="-230" width="60" height="30" as="geometry" />
        </mxCell>
        <mxCell id="io1Po6JrHzI410Qk05B3-13" value="1" style="text;html=1;align=center;verticalAlign=middle;whiteSpace=wrap;rounded=0;" parent="1" vertex="1">
          <mxGeometry x="220" y="-215" width="60" height="30" as="geometry" />
        </mxCell>
        <mxCell id="t04y_2WHbk5BwOvO7LWw-17" style="edgeStyle=orthogonalEdgeStyle;rounded=0;orthogonalLoop=1;jettySize=auto;html=1;entryX=0.75;entryY=1;entryDx=0;entryDy=0;endArrow=block;endFill=0;endSize=10;dashed=1;" edge="1" parent="1" source="t04y_2WHbk5BwOvO7LWw-7" target="t04y_2WHbk5BwOvO7LWw-16">
          <mxGeometry relative="1" as="geometry">
            <Array as="points">
              <mxPoint x="-140" y="-160" />
              <mxPoint x="-230" y="-160" />
            </Array>
          </mxGeometry>
        </mxCell>
        <mxCell id="t04y_2WHbk5BwOvO7LWw-7" value="PercentDiscount" style="swimlane;whiteSpace=wrap;html=1;" vertex="1" parent="1">
          <mxGeometry x="-240" y="-120" width="200" height="200" as="geometry" />
        </mxCell>
        <mxCell id="t04y_2WHbk5BwOvO7LWw-8" value="-_percent: int&lt;div&gt;-_category: Category&lt;/div&gt;&lt;div&gt;-_totalSum: double&lt;/div&gt;" style="text;html=1;align=left;verticalAlign=middle;whiteSpace=wrap;rounded=0;fillColor=default;" vertex="1" parent="t04y_2WHbk5BwOvO7LWw-7">
          <mxGeometry y="30" width="200" height="70" as="geometry" />
        </mxCell>
        <mxCell id="t04y_2WHbk5BwOvO7LWw-9" value="+Category{get;}(): Category&lt;div&gt;+Info{get;}(): string&lt;/div&gt;&lt;div&gt;+Calculate(): double&lt;/div&gt;&lt;div&gt;+Apply(): double&lt;/div&gt;&lt;div&gt;+Update(): void&lt;/div&gt;" style="text;html=1;align=left;verticalAlign=middle;whiteSpace=wrap;rounded=0;fillColor=default;" vertex="1" parent="t04y_2WHbk5BwOvO7LWw-7">
          <mxGeometry y="110" width="200" height="90" as="geometry" />
        </mxCell>
        <mxCell id="t04y_2WHbk5BwOvO7LWw-10" value="" style="endArrow=none;html=1;rounded=0;exitX=0;exitY=0.5;exitDx=0;exitDy=0;entryX=1;entryY=0.5;entryDx=0;entryDy=0;" edge="1" parent="1" source="t04y_2WHbk5BwOvO7LWw-7" target="t04y_2WHbk5BwOvO7LWw-7">
          <mxGeometry width="50" height="50" relative="1" as="geometry">
            <mxPoint x="-210" y="20" as="sourcePoint" />
            <mxPoint x="-160" y="-30" as="targetPoint" />
          </mxGeometry>
        </mxCell>
        <mxCell id="t04y_2WHbk5BwOvO7LWw-18" style="edgeStyle=orthogonalEdgeStyle;rounded=0;orthogonalLoop=1;jettySize=auto;html=1;entryX=0.25;entryY=1;entryDx=0;entryDy=0;endArrow=block;endFill=0;dashed=1;startSize=10;endSize=10;" edge="1" parent="1" source="t04y_2WHbk5BwOvO7LWw-11" target="t04y_2WHbk5BwOvO7LWw-15">
          <mxGeometry relative="1" as="geometry" />
        </mxCell>
        <mxCell id="t04y_2WHbk5BwOvO7LWw-11" value="PointsDiscount" style="swimlane;whiteSpace=wrap;html=1;" vertex="1" parent="1">
          <mxGeometry x="-520" y="-120" width="200" height="200" as="geometry" />
        </mxCell>
        <mxCell id="t04y_2WHbk5BwOvO7LWw-12" value="-_points: int" style="text;html=1;align=left;verticalAlign=middle;whiteSpace=wrap;rounded=0;fillColor=default;" vertex="1" parent="t04y_2WHbk5BwOvO7LWw-11">
          <mxGeometry y="30" width="200" height="70" as="geometry" />
        </mxCell>
        <mxCell id="t04y_2WHbk5BwOvO7LWw-13" value="+Points{get; private set;}(): int&lt;div&gt;&lt;div&gt;+Info{get;}(): string&lt;/div&gt;&lt;div&gt;+Calculate(): double&lt;/div&gt;&lt;div&gt;+Apply(): double&lt;/div&gt;&lt;div&gt;+Update(): void&lt;/div&gt;&lt;/div&gt;" style="text;html=1;align=left;verticalAlign=middle;whiteSpace=wrap;rounded=0;fillColor=default;" vertex="1" parent="t04y_2WHbk5BwOvO7LWw-11">
          <mxGeometry y="110" width="200" height="90" as="geometry" />
        </mxCell>
        <mxCell id="t04y_2WHbk5BwOvO7LWw-14" value="" style="endArrow=none;html=1;rounded=0;exitX=0;exitY=0.5;exitDx=0;exitDy=0;entryX=1;entryY=0.5;entryDx=0;entryDy=0;" edge="1" parent="1" source="t04y_2WHbk5BwOvO7LWw-11" target="t04y_2WHbk5BwOvO7LWw-11">
          <mxGeometry width="50" height="50" relative="1" as="geometry">
            <mxPoint x="-490" y="20" as="sourcePoint" />
            <mxPoint x="-440" y="-30" as="targetPoint" />
          </mxGeometry>
        </mxCell>
        <mxCell id="t04y_2WHbk5BwOvO7LWw-15" value="&quot;Interface&quot;&lt;div&gt;IDiscount&lt;/div&gt;" style="swimlane;whiteSpace=wrap;html=1;startSize=40;" vertex="1" parent="1">
          <mxGeometry x="-380" y="-400" width="200" height="200" as="geometry" />
        </mxCell>
        <mxCell id="t04y_2WHbk5BwOvO7LWw-16" value="&lt;div style=&quot;text-align: left;&quot;&gt;+Info{get;}(): string&lt;/div&gt;&lt;div style=&quot;text-align: left;&quot;&gt;+Calculate(): double&lt;/div&gt;&lt;div style=&quot;text-align: left;&quot;&gt;+Apply(): double&lt;/div&gt;&lt;div style=&quot;text-align: left;&quot;&gt;+Update(): void&lt;/div&gt;" style="text;html=1;align=center;verticalAlign=middle;whiteSpace=wrap;rounded=0;fillColor=default;" vertex="1" parent="t04y_2WHbk5BwOvO7LWw-15">
          <mxGeometry y="50" width="200" height="150" as="geometry" />
        </mxCell>
        <mxCell id="t04y_2WHbk5BwOvO7LWw-19" style="edgeStyle=orthogonalEdgeStyle;rounded=0;orthogonalLoop=1;jettySize=auto;html=1;entryX=0.5;entryY=0;entryDx=0;entryDy=0;endSize=10;startSize=20;startArrow=diamondThin;startFill=1;endArrow=open;endFill=0;" edge="1" parent="1" source="t04y_2WHbk5BwOvO7LWw-9" target="9AeZooRBN76Ic_oo0eFn-14">
          <mxGeometry relative="1" as="geometry" />
        </mxCell>
        <mxCell id="t04y_2WHbk5BwOvO7LWw-20" value="1" style="text;html=1;align=center;verticalAlign=middle;whiteSpace=wrap;rounded=0;" vertex="1" parent="1">
          <mxGeometry x="-110" y="290" width="60" height="30" as="geometry" />
        </mxCell>
        <mxCell id="t04y_2WHbk5BwOvO7LWw-21" value="1" style="text;html=1;align=center;verticalAlign=middle;whiteSpace=wrap;rounded=0;" vertex="1" parent="1">
          <mxGeometry x="-150" y="80" width="60" height="30" as="geometry" />
        </mxCell>
        <mxCell id="t04y_2WHbk5BwOvO7LWw-23" value="1" style="text;html=1;align=center;verticalAlign=middle;whiteSpace=wrap;rounded=0;" vertex="1" parent="1">
          <mxGeometry x="690" y="290" width="60" height="30" as="geometry" />
        </mxCell>
        <mxCell id="t04y_2WHbk5BwOvO7LWw-24" value="n" style="text;html=1;align=center;verticalAlign=middle;whiteSpace=wrap;rounded=0;" vertex="1" parent="1">
          <mxGeometry x="-200" y="-380" width="60" height="30" as="geometry" />
        </mxCell>
      </root>
    </mxGraphModel>
  </diagram>
</mxfile>
